# xmcd
#
# Track frame offsets: 
#        150
#        11037
#        20940
#        33158
#        43125
#        53012
#        61952
#        71159
#        80237
#        90570
#        103849
#        112031
#        122132
#        133820
#        144807
#        156221
#        164520
#        175512
#        185200
#        194662
#        200913
#        210794
#        218921
#        231002
#        239651
#        249347
#        260128
#        269153
#        283000
#        296572
#
# Disc length: 4082 seconds
#
# Revision: 0
# Processed by: cddbd v1.5.1PL0 Copyright (c) Steve Scherf et al.
# Submitted via: ExactAudioCopy v0.95a4
#
DISCID=de0ff01e
DTITLE=Various Artist - Rough Stuff Boppin'
DYEAR=1900
DGENRE=Country
TTITLE0=Honey and Sonny (The Davis Twins) - I'm Rough Stuff
TTITLE1=Plain Slim and The O'Dell Family - One Little Tear Drop Too Late
TTITLE2=Weldon Rogers and Wanda Wolfe - Woman Drivers
TTITLE3=Cliff Clay and The Rainbow Rhythmaires - Sugar Baby
TTITLE4=Silver Run Troubadours - Sweet Suzie Jane
TTITLE5=Ken Lightner and His Hay Riders - Mary Ann
TTITLE6=Bill Marcum and Jimmie Evans - Eight String Rock (Instr.)
TTITLE7=Riley Crabtree - I've Lived Two Days In One
TTITLE8=James O'Gwynn and His Cry Babies - Ready For Freddy
TTITLE9=Buck Griffin - One Day After Payday
TTITLE10=Wade Jackson With Weldon and Wanda Rogers - Father Time and Mothe
TTITLE10=r Nature
TTITLE11=Bill Price With Cunningham Brothers - Stephie Gal (Instr.)
TTITLE12=Rex Zario - You Nearly Lose Your Mind
TTITLE13=Bennie Hess and His Dobro Boy - The Truck Drivin' Man
TTITLE14=Harold Cavallero - Brown Eyed Gal
TTITLE15=Doye O'Dell - Everybody Needs A Little Lovin'
TTITLE16=Charlie Ryan and the Timberline Riders - Hot Rod Guitar (Instr.
TTITLE16=)
TTITLE17=The Old Dixie Drifter - Big-Big Man
TTITLE18=Bob Stanley With Jack Tucker and The Oklahoma Playboys - Your T
TTITLE18=riflin' Ways
TTITLE19=Jimmie Zack - Lost John's Gone
TTITLE20=Salty Holmes With Joe Maphis - Harmonica Boogie Shuffle (Inst
TTITLE20=r.)
TTITLE21=Billy Wallace - Wolf Call
TTITLE22=Bud Allen and The Buckeroos - When The Ice Worms Nest Again
TTITLE23=Marty Martin - Mobile, Alabama Blues
TTITLE24=Elmer Bryant - Gertie's Garter Broke
TTITLE25=Chster Smith - Tennessee Saturday Night
TTITLE26=Don Cathey - Deejay Swing (Instr.)
TTITLE27=Bennie Hess - Trucker's Blues
TTITLE28=Betty Jo and Johnny Starr - Eskimo Boogie
TTITLE29=Danny Brockman - Big Big Man
EXTD=
EXTT0=
EXTT1=
EXTT2=
EXTT3=
EXTT4=
EXTT5=
EXTT6=
EXTT7=
EXTT8=
EXTT9=
EXTT10=
EXTT11=
EXTT12=
EXTT13=
EXTT14=
EXTT15=
EXTT16=
EXTT17=
EXTT18=
EXTT19=
EXTT20=
EXTT21=
EXTT22=
EXTT23=
EXTT24=
EXTT25=
EXTT26=
EXTT27=
EXTT28=
EXTT29=
PLAYORDER=
